<?xml version="1.0" encoding="iso-8859-1"?>
<!-- Generator: Adobe Illustrator 19.0.0, SVG Export Plug-In . SVG Version: 6.00 Build 0)  -->
<svg version="1.1" id="Capa_1" xmlns="http://www.w3.org/2000/svg" xmlns:xlink="http://www.w3.org/1999/xlink" x="0px" y="0px"
	 viewBox="0 0 512 512" style="enable-background:new 0 0 512 512;" xml:space="preserve">
<g>
	<path style="fill:#FACF66;" d="M321.835,34.308h-131.67c-84.183,0-152.427,68.244-152.427,152.427V207h436.524v-20.264
		C474.262,102.552,406.018,34.308,321.835,34.308z"/>
	<path style="fill:#FACF66;" d="M403.496,477.691H108.504c-39.083,0-70.766-31.683-70.766-70.766v-22.832h436.524v22.832
		C474.262,446.008,442.579,477.691,403.496,477.691z"/>
</g>
<path style="fill:#F4B558;" d="M381.165,384.625v22.3c0,39.083-31.683,70.766-70.766,70.766h93.097
	c39.083,0,70.766-31.683,70.766-70.766v-22.832L381.165,384.625z"/>
<path style="fill:#E63535;" d="M488.133,298.323l-222.09,10l-242.176-10C10.685,298.323,0,287.637,0,274.456l0,0
	c0-13.181,10.685-23.867,23.867-23.867h464.266c13.181,0,23.867,10.685,23.867,23.867l0,0
	C511.999,287.637,501.314,298.323,488.133,298.323z"/>
<path style="fill:#9A2223;" d="M468.675,384.972H43.325C19.397,384.972,0,365.576,0,341.647l0,0
	c0-23.928,19.397-43.325,43.325-43.325h425.35c23.928,0,43.325,19.397,43.325,43.325l0,0
	C511.999,365.576,492.602,384.972,468.675,384.972z"/>
<path style="fill:#7F1D22;" d="M468.675,298.323h-81.123c23.928,0,43.325,19.397,43.325,43.325l0,0
	c0,23.928-19.397,43.325-43.325,43.325h81.123c23.928,0,43.325-19.397,43.325-43.325l0,0
	C511.999,317.72,492.602,298.323,468.675,298.323z"/>
<path style="fill:#C93131;" d="M488.133,250.59h-65.978c13.181,0,23.866,10.685,23.866,23.866l0,0
	c0,13.181-10.685,23.867-23.866,23.867h65.978c13.181,0,23.867-10.686,23.867-23.867l0,0
	C511.999,261.275,501.314,250.59,488.133,250.59z"/>
<path style="fill:#7F1D22;" d="M122.589,370.799c7.018,7.164,18.551,7.164,25.569,0l71.434-72.477H50.382L122.589,370.799z"/>
<path style="fill:#FCE000;" d="M148.158,356.395l56.888-58.072H65.701l56.888,58.072
	C129.607,363.559,141.14,363.559,148.158,356.395z"/>
<path style="fill:#7F1D22;" d="M371.306,358.392c5.546,5.195,14.172,5.195,19.718,0l60.448-60.07H306.808L371.306,358.392z"/>
<path style="fill:#FCE000;" d="M391.024,343.988l48.753-45.666H322.553l48.753,45.666
	C376.852,349.184,385.478,349.184,391.024,343.988z"/>
<path style="fill:#C93131;" d="M501.393,254.612c-3.793-2.539-7.851-10.009-12.758-10.009H24.368
	c-4.914,0-9.981,7.474-13.777,10.019c3.796,2.257,8.362,3.575,13.275,3.575h8.853c19.65,0,19.65,27.11,39.299,27.11
	c19.651,0,19.651-27.11,39.301-27.11c19.651,0,19.651,27.11,39.302,27.11c19.648,0,19.648-27.11,39.296-27.11
	c19.649,0,19.649,27.11,39.297,27.11c19.651,0,19.651-27.11,39.302-27.11s19.651,27.11,39.302,27.11
	c19.652,0,19.652-27.11,39.304-27.11s19.652,27.11,39.303,27.11c19.654,0,19.654-27.11,39.308-27.11
	c13.137,0,17.493,12.111,24.806,20.143c5.378,5.907,15.667,5.599,20.827-0.459l13.3-15.616c1.951-2.291,4.772-3.905,7.954-4.442
	C495.821,257.283,498.783,256.162,501.393,254.612z"/>
<path style="fill:#97C232;" d="M471.368,267.603c-5.159,6.058-15.449,6.365-20.827,0.459c-7.313-8.033-11.669-20.144-24.806-20.144
	c-19.654,0-19.654,27.11-39.308,27.11c-19.651,0-19.651-27.11-39.303-27.11s-19.652,27.11-39.304,27.11
	c-19.651,0-19.651-27.11-39.302-27.11s-19.651,27.11-39.302,27.11c-19.649,0-19.649-27.11-39.297-27.11s-19.648,27.11-39.296,27.11
	c-19.651,0-19.651-27.11-39.302-27.11s-19.651,27.11-39.301,27.11s-19.65-27.11-39.299-27.11h-8.853
	C10.685,247.918,0,238.443,0,226.757l0,0c0-11.688,10.685-21.162,23.867-21.162h464.266c13.181,0,23.867,9.475,23.867,21.162l0,0
	c0,10.327-8.343,18.927-19.378,20.789c-3.181,0.537-6.002,2.151-7.954,4.442L471.368,267.603z"/>
<path style="fill:#F4B558;" d="M321.835,34.308h-93.097c84.183,0,152.427,68.244,152.427,152.428v18.858h93.097v-18.858
	C474.262,102.552,406.018,34.308,321.835,34.308z"/>
<g>
	<circle style="fill:#FAFBDC;" cx="174.88" cy="100.23" r="7.834"/>
	<circle style="fill:#FAFBDC;" cx="227.8" cy="100.23" r="7.834"/>
	<circle style="fill:#FAFBDC;" cx="280.02" cy="100.23" r="7.834"/>
	<circle style="fill:#FAFBDC;" cx="334.34" cy="100.23" r="7.834"/>
	<circle style="fill:#FAFBDC;" cx="144.93" cy="146.961" r="7.834"/>
	<circle style="fill:#FAFBDC;" cx="197.86" cy="146.961" r="7.834"/>
	<circle style="fill:#FAFBDC;" cx="250.08" cy="146.961" r="7.834"/>
	<circle style="fill:#FAFBDC;" cx="302.58" cy="149.9" r="7.834"/>
	<circle style="fill:#FAFBDC;" cx="353.62" cy="149.9" r="7.834"/>
</g>
<path style="fill:#88B22D;" d="M488.133,205.594h-65.978v42.656c1.119-0.213,2.307-0.331,3.58-0.331
	c13.137,0,17.493,12.111,24.806,20.144c5.378,5.907,15.667,5.599,20.827-0.459l13.3-15.616c1.951-2.291,4.772-3.905,7.954-4.442
	C503.657,245.684,512,237.085,512,226.758l0,0C511.999,215.068,501.314,205.594,488.133,205.594z"/>
<g>
</g>
<g>
</g>
<g>
</g>
<g>
</g>
<g>
</g>
<g>
</g>
<g>
</g>
<g>
</g>
<g>
</g>
<g>
</g>
<g>
</g>
<g>
</g>
<g>
</g>
<g>
</g>
<g>
</g>
</svg>
