<svg height="512" viewBox="0 0 64 64" width="512" xmlns="http://www.w3.org/2000/svg"><g id="Wallet-Credit_Card-Payment-Budget-Payment_Method" data-name="Wallet-Credit Card-Payment-Budget-Payment Method"><path d="m3 26h29v6h-29z" fill="#633f22"/><path d="m32 26h29v6h-29z" fill="#633f22"/><rect fill="#3d9ae2" height="28" rx="2" width="44" x="10" y="8"/><path d="m49.12 26.88a3 3 0 0 1 -2.12 5.12h-4a3 3 0 0 1 0-6h4a2.993 2.993 0 0 1 2.12.88z" fill="#ffa733"/><path d="m24 16v5a1 1 0 0 1 -1 1h-5v-6z" fill="#ffa733"/><path d="m24 13v3h-6v-4h5a1 1 0 0 1 1 1z" fill="#ff9811"/><path d="m18 16v6h-3a1 1 0 0 1 -1-1v-8a1 1 0 0 1 1-1h3z" fill="#ee8700"/><path d="m61 32v24h-29v-5-2-7-10z" fill="#8b5e3c"/><path d="m32 32v10h-8.4l-5.6-5h-15v-5z" fill="#754c29"/><path d="m32 42v7h-8.4l-5.6-5h-15v-7h15l5.6 5z" fill="#633f22"/><path d="m32 51v5h-29v-5-7h15l5.6 5h8.4z" fill="#754c29"/><rect fill="#754c29" height="14" rx="2" width="19" x="37" y="37"/><path d="m54 26h2v6h-2z" fill="#52341b"/><path d="m8 26h2v6h-2z" fill="#52341b"/><g fill="#1e81ce"><path d="m47 13h4v2h-4z"/><path d="m41 13h4v2h-4z"/><path d="m35 13h4v2h-4z"/><path d="m29 13h4v2h-4z"/><path d="m29 18h22v2h-22z"/><path d="m13 25h2v4h-2z"/><path d="m17 25h2v4h-2z"/><path d="m21 25h2v4h-2z"/><path d="m25 25h2v4h-2z"/><path d="m31 25h2v4h-2z"/><path d="m35 25h2v4h-2z"/></g></g></svg>