<svg id="Capa_1" enable-background="new 0 0 512 512" height="512" viewBox="0 0 512 512" width="512" xmlns="http://www.w3.org/2000/svg"><path d="m328.3 512h-192.8c-7.706 0-14.159-5.84-14.926-13.508l-8.033-80.333c-.422-4.217.96-8.415 3.804-11.558 2.843-3.142 6.884-4.935 11.122-4.935h208.867c4.238 0 8.278 1.793 11.122 4.935 2.843 3.143 4.225 7.341 3.803 11.558l-8.034 80.333c-.767 7.668-7.219 13.508-14.925 13.508z" fill="#cf0050"/><path d="m343.225 498.492 8.034-80.333c.422-4.217-.96-8.415-3.803-11.558-2.844-3.142-6.884-4.935-11.122-4.935h-104.434v110.334h96.4c7.706 0 14.158-5.84 14.925-13.508z" fill="#b20042"/><path d="m312.233 110.333c-3.839 0-7.677-1.464-10.606-4.394-5.858-5.857-5.858-15.355 0-21.213l80.333-80.332c2.813-2.814 6.629-4.394 10.607-4.394h80.333c8.284 0 15 6.716 15 15s-6.716 15-15 15h-74.12l-75.94 75.939c-2.929 2.929-6.768 4.394-10.607 4.394z" fill="#0fa7db"/><path d="m352.4 431.667h-241c-7.72 0-14.179-5.859-14.929-13.543l-21.955-224.934c-.411-4.212.976-8.401 3.819-11.535 2.843-3.135 6.878-4.922 11.11-4.922h289.2c4.281 0 8.358 1.829 11.205 5.027 2.846 3.197 4.19 7.459 3.694 11.711l-26.245 224.934c-.882 7.561-7.287 13.262-14.899 13.262z" fill="#ff415b"/><path d="m367.299 418.405 26.245-224.934c.496-4.252-.848-8.514-3.694-11.711-2.847-3.198-6.923-5.027-11.205-5.027h-146.745v254.934h120.5c7.612 0 14.017-5.701 14.899-13.262z" fill="#cf0050"/><path d="m384.533 206.733h-305.266c-7.333 0-13.59-5.301-14.796-12.534l-16.066-96.4h366.992l-16.067 96.4c-1.206 7.234-7.464 12.534-14.797 12.534z" fill="#ff7c48"/><path d="m399.329 194.199 16.067-96.4h-183.496v108.935h152.633c7.333-.001 13.591-5.301 14.796-12.535z" fill="#ff415b"/><path d="m424.7 110.333h-385.6c-8.284 0-15-6.716-15-15s6.716-15 15-15h385.6c8.284 0 15 6.716 15 15s-6.716 15-15 15z" fill="#f5fafa"/><path d="m439.7 95.333c0-8.284-6.716-15-15-15h-192.8v30h192.8c8.284 0 15-6.716 15-15z" fill="#dfeef5"/></svg>