<svg height="512pt" viewBox="-61 0 512 512" width="512pt" xmlns="http://www.w3.org/2000/svg"><path d="m105 45v287h-60v-287c0-8.402344 6.597656-15 15-15h30c8.402344 0 15 6.597656 15 15zm0 0" fill="#ffe470"/><path d="m105 45v287h-30v-302h15c8.402344 0 15 6.597656 15 15zm0 0" fill="#fdbf00"/><path d="m165 15v287h-60v-287c0-8.402344 6.597656-15 15-15h30c8.402344 0 15 6.597656 15 15zm0 0" fill="#ffe470"/><path d="m165 15v287h-30v-302h15c8.402344 0 15 6.597656 15 15zm0 0" fill="#fdbf00"/><path d="m225 45v287h-60v-287c0-8.402344 6.597656-15 15-15h30c8.402344 0 15 6.597656 15 15zm0 0" fill="#ffe470"/><path d="m225 45v287h-30v-302h15c8.402344 0 15 6.597656 15 15zm0 0" fill="#fdbf00"/><path d="m285 15v287h-60v-287c0-8.402344 6.597656-15 15-15h30c8.402344 0 15 6.597656 15 15zm0 0" fill="#ffe470"/><path d="m285 15v287h-30v-302h15c8.402344 0 15 6.597656 15 15zm0 0" fill="#fdbf00"/><path d="m345 45v287h-60v-287c0-8.402344 6.597656-15 15-15h30c8.402344 0 15 6.597656 15 15zm0 0" fill="#ffe470"/><path d="m345 45v287h-30v-302h15c8.402344 0 15 6.597656 15 15zm0 0" fill="#fdbf00"/><path d="m390 224.597656v5.402344c0 34.5-3.300781 68.398438-9 102l-101.699219 30h-168.601562l-101.699219-30c-5.699219-33.601562-9-67.5-9-102v-5.402344c0-23.398437 19.199219-42.597656 42.597656-42.597656h62.402344c8.402344 0 15 6.597656 15 15v45h150v-45c0-8.402344 6.597656-15 15-15h62.402344c23.398437 0 42.597656 19.199219 42.597656 42.597656zm0 0" fill="#ff7816"/><path d="m359.097656 422c-4.199218 13.199219-8.398437 26.398438-13.496094 39.300781l-16.800781 41.398438c-2.101562 5.699219-7.800781 9.300781-13.800781 9.300781h-240c-6 0-11.699219-3.601562-13.800781-9.300781l-16.800781-41.398438c-5.097657-12.902343-9.300782-26.101562-13.5-39.300781l79.800781-30h168.601562zm0 0" fill="#ff7816"/><path d="m279.300781 392 79.796875 30c-4.199218 13.199219-8.398437 26.398438-13.496094 39.300781l-16.800781 41.398438c-2.101562 5.699219-7.800781 9.300781-13.800781 9.300781h-120v-120zm0 0" fill="#ff4b00"/><path d="m390 224.597656v5.402344c0 34.5-3.300781 68.398438-9 102l-101.699219 30h-84.300781v-120h75v-45c0-8.402344 6.597656-15 15-15h62.402344c23.398437 0 42.597656 19.199219 42.597656 42.597656zm0 0" fill="#ff4b00"/><path d="m381 332c-1.5 10.199219-3.601562 20.097656-5.699219 30-2.101562 10.199219-4.5 20.097656-7.199219 30-2.703124 10.199219-5.703124 20.097656-9.003906 30h-79.796875c-19.5 18.898438-50.402343 30-84.300781 30s-64.800781-11.101562-84.300781-30h-79.796875c-3.300782-9.902344-6.300782-19.800781-9.003906-30-2.699219-9.902344-5.097657-19.800781-7.199219-30-2.097657-9.902344-4.199219-19.800781-5.699219-30h101.699219c19.5-18.898438 50.402343-30 84.300781-30s64.800781 11.101562 84.300781 30zm0 0" fill="#ffe470"/><path d="m381 332c-1.5 10.199219-3.601562 20.097656-5.699219 30-2.101562 10.199219-4.5 20.097656-7.199219 30-2.703124 10.199219-5.703124 20.097656-9.003906 30h-79.796875c-19.5 18.898438-50.402343 30-84.300781 30v-150c33.898438 0 64.800781 11.101562 84.300781 30zm0 0" fill="#fdbf00"/></svg>