<svg height="512" viewBox="0 0 64 64" width="512" xmlns="http://www.w3.org/2000/svg"><g id="Flat"><path d="m59.5 23.72c0 6.5-10 12.5-27.5 12.5s-27.5-6-27.5-12.5 8.5-7.72 8.5-7.72c7.5-1.5 10.55.87 14.93 2a16.05 16.05 0 0 0 8.15 0c4.37-1.15 7.93-3.52 17.43-2a7.76 7.76 0 0 1 5.99 7.72z" fill="#ffac00"/><path d="m56.88 34.37-7.66 3.12a45.7 45.7 0 0 1 -34.44 0l-7.66-3.12a7.41 7.41 0 0 1 -4.62-6.86 7.41 7.41 0 0 1 10.2-6.86l2.08.85a45.7 45.7 0 0 0 34.44 0l2.08-.85a7.41 7.41 0 0 1 10.2 6.86 7.41 7.41 0 0 1 -4.62 6.86z" fill="#ce5900"/><path d="m49.5 20.92s-2-1-3-.5 2 3.5 3.5 6-1 6-3 6.5-2.5-2-3.5-5.5-4.5-5.5-6-5-.5 1.5.5 4 0 7.5-2 8-2.5-1.5-3-5.5-4-6-5.5-6 .5 10.5-1 11-2.5 0-3.5-6-2-6-3.5-6 0 7-2.5 10-2.5-3-2.5-3c1-4-.5-8-2.5-9s-5 .5-5 .5 4.5 0 5 2a13.25 13.25 0 0 1 .5 6.5c-.5 3-.5 6 2.5 6s4.5-2.5 5-4.5 0-6 .5-5.5.5 6.5 2.5 9.5 4 2 5 .5 1-6.5 1-7.5-.5-2.5 0-2 1.5 0 2.5 5 2 7 5 6.5 5-8 4-10 0-2 1 .5 1.5 7.5 5.5 7 6.5-4.5 5-7.5-5-5.5-2.5-6z" fill="#ff001a"/><path d="m53.56 19.92s-2-1-3-.5 2 3.5 3.5 6-1 6-3 6.5-2.5-2-3.5-5.5-4.5-5.5-6-5-.5 1.5.5 4 0 7.5-2 8-2.5-1.5-3-5.5-4-6-5.5-6 .5 10.5-1 11-2.5 0-3.5-6-2-6-3.5-6 0 7-2.5 10-2.5-3-2.5-3c1-4-.5-8-2.5-9s-5 .5-5 .5 4.5 0 5 2a13.25 13.25 0 0 1 .5 6.5c-.5 3-.5 6 2.5 6s4.5-2.5 5-4.5 0-6 .5-5.5.5 6.5 2.5 9.5 4 2 5 .5 1-6.5 1-7.5-.5-2.5 0-2 1.5 0 2.5 5 2 7 5 6.5 5-8 4-10 0-2 1 .5 1.5 7.5 5.5 7 6.5-4.5 5-7.5-5-5.5-2.5-6z" fill="#ffff34"/><path d="m59.5 36c0 6.5-10 12.5-27.5 12.5s-27.5-6.01-27.5-12.5 5.5-7.5 5.5-7.5c6.37-.8 13.55.64 17.93 1.79a16.05 16.05 0 0 0 8.15 0c4.37-1.16 11.55-2.59 17.92-1.8 0 0 5.5 1 5.5 7.51z" fill="#ffac00"/><path d="m32 46c-13.51 0-20-4.9-20.3-5.1a.5.5 0 0 1 .61-.79c.06 0 6.55 4.9 19.7 4.9s19.65-4.37 19.72-4.41a.5.5 0 1 1 .57.82c-.3.17-6.8 4.58-20.3 4.58z" fill="#ff9100"/></g></svg>