<svg id="Flat" enable-background="new 0 0 512 512" height="512" viewBox="0 0 512 512" width="512" xmlns="http://www.w3.org/2000/svg"><g><g><g><path d="m502.03 217.64-48.905-20.999c-4.786-18.435-12.096-35.861-21.532-51.891l19.75-49.452c-12.456-15.931-26.833-30.311-42.767-42.768l-49.449 19.75c-16.03-9.425-33.449-16.736-51.883-21.53l-21-48.905c-9.924-1.203-20.003-1.845-30.239-1.845-10.244 0-20.336.642-30.247 1.845l-21.002 48.905c-18.435 4.794-35.861 12.105-51.883 21.53l-49.458-19.749c-15.937 12.457-30.307 26.837-42.767 42.768l19.747 49.452c-9.424 16.03-16.734 33.456-21.52 51.891l-48.905 20.998c-1.212 9.907-1.845 20.004-1.845 30.249 0 10.229.633 20.31 1.845 30.233l48.905 20.998c4.786 18.434 12.096 35.86 21.52 51.887l-19.747 49.455c12.46 15.934 26.829 30.313 42.767 42.768l49.458-19.75c16.022 9.426 33.449 16.737 51.883 21.512l21.002 48.925c9.911 1.201 20.003 1.843 30.247 1.843 10.236 0 20.315-.642 30.239-1.843l21-48.925c18.435-4.775 35.853-12.086 51.883-21.512l49.449 19.75c15.934-12.455 30.311-26.834 42.767-42.768l-19.75-49.455c9.436-16.027 16.746-33.454 21.532-51.887l48.905-20.998c1.205-9.923 1.845-20.004 1.845-30.233 0-10.245-.64-20.343-1.845-30.249zm-246.029 177.39c-81.272 0-147.155-65.881-147.155-147.15 0-81.272 65.883-147.153 147.155-147.153 81.27 0 147.153 65.881 147.153 147.153 0 81.269-65.883 147.15-147.153 147.15z" fill="#3d4244"/></g><g><g id="XMLID_257_"><g fill="#01d0fb"><path d="m412.802 93.675-156.803 90.535-156.801-90.535 156.801-90.526z"/><path d="m255.999 184.21v181.06l-156.801-90.525v-181.07z"/><path d="m412.802 93.675v181.07l-156.803 90.525v-181.06z"/></g></g><path d="m200.444 31.669-41.806 24.14 158.977 92.825v187.85l41.806-24.138v-187.85z" fill="#fd51a1"/><path d="m311.554 31.669 41.806 24.14-158.977 92.825v187.85l-41.806-24.138v-187.85z" fill="#fd51a1"/><g id="XMLID_256_"><g fill="#fd51a1"><path d="m158.638 59.406c17.084-5.359 38.382 1.666 61.982 19.749 11.333 8.669 23.187 19.887 35.379 33.5v-48.549c-40.674-45.439-77.731-64.19-103.421-50.745-8.022 4.202-12.766 10.729-13.372 17.722v48.559c.605-6.993 5.349-13.53 13.372-17.732 1.953-1.018 3.98-1.857 6.06-2.504z"/><path d="m139.207 79.642c-1.315 15.387 17.372 33.013 65.082 33.013h51.711c-12.193-13.614-24.046-24.831-35.379-33.5-31.464-3.184-63.627-12.012-61.982-19.749-2.08.647-4.107 1.486-6.06 2.504-8.023 4.202-12.766 10.739-13.372 17.732z"/></g></g><g id="XMLID_255_"><g fill="#fd51a1"><path d="m353.362 59.406c-17.084-5.359-38.382 1.666-61.982 19.749-11.333 8.669-23.187 19.887-35.379 33.5v-48.549c40.674-45.439 77.73-64.19 103.421-50.745 8.022 4.202 12.766 10.729 13.372 17.722v48.559c-.605-6.993-5.349-13.53-13.372-17.732-1.953-1.018-3.98-1.857-6.06-2.504z"/><path d="m372.793 79.642c1.315 15.387-17.372 33.013-65.082 33.013h-51.711c12.193-13.614 24.046-24.831 35.379-33.5 31.464-3.184 63.627-12.012 61.982-19.749 2.08.647 4.107 1.486 6.06 2.504 8.023 4.202 12.767 10.739 13.372 17.732z"/></g></g></g><g><g><path d="m377.992 406.31c6.833 6.292 8.533 16.279 3.578 23.368-5.445 7.777-16.958 9.221-25.586 3.184l4.649 3.246c8.626 6.039 11.217 17.34 5.772 25.128-5.442 7.789-16.958 9.222-25.584 3.183l-8.415-5.889c8.615 6.038 11.214 17.339 5.772 25.128-5.456 7.79-16.968 9.222-25.584 3.184l-10.496-7.343c8.626 6.039 11.217 17.339 5.772 25.129-5.442 7.789-16.958 9.222-25.584 3.184l-89.978-52.443-24.757-15.547c-48.611-30.53-37.883-62.29-37.883-62.29l-49.716-31.22 52.029-82.845 49.715 31.219s23.94-23.462 72.563 7.068h3.479c-11.693 8.319-27.197 19.345-35.379 25.171-29.161 20.747-2.004 57.091 23.994 38.605 25.999-18.497 35.241-25.064 35.241-25.064 3.64 5.793 9.391 11.035 17.148 13.635z" fill="#ffcebf"/><path d="m382.332 377.531s4.129 12.213-4.34 28.778c-.68-.626-1.411-1.221-2.197-1.761l-77.051-50.448c-7.757-2.6-13.508-7.842-17.148-13.635 0 0-9.242 6.567-35.241 25.064-25.999 18.485-53.155-17.858-23.994-38.605 8.182-5.826 23.686-16.852 35.379-25.171 48.623-30.53 72.563-7.068 72.563-7.068l49.715-31.219 52.029 82.845z" fill="#ab695d"/><path d="m377.992 406.31-79.248-52.21 77.051 50.449c.786.54 1.517 1.135 2.197 1.761z" fill="#fff"/></g><path d="m37.399 333.994c-3.103 4.942-1.598 11.527 3.343 14.63l32.221 20.233c4.941 3.103 11.526 1.599 14.628-3.343l64.999-103.508c3.104-4.943 1.6-11.527-3.343-14.631l-32.218-20.231c-4.944-3.104-11.526-1.6-14.631 3.343z" fill="#9257ff"/><circle cx="116.094" cy="264.4" fill="#3a313a" r="13.442"/><g><path d="m263.516 468.223c4.779 8.198 1.264 19.234-7.813 24.526l-28.191 16.433c-9.077 5.291-20.412 2.911-25.191-5.288-4.78-8.199-1.265-19.236 7.812-24.526l28.192-16.434c9.075-5.289 20.41-2.911 25.191 5.289z" fill="#ab695d"/></g><g><path d="m233.635 445.696c4.78 8.199 1.264 19.235-7.813 24.526l-28.19 16.433c-9.076 5.291-20.412 2.911-25.192-5.288-4.779-8.198-1.263-19.236 7.813-24.526l28.19-16.433c9.078-5.29 20.412-2.911 25.192 5.288z" fill="#ab695d"/></g><g><path d="m204.975 422.458c4.779 8.198 1.265 19.235-7.813 24.526l-28.191 16.432c-9.077 5.291-20.412 2.912-25.191-5.287s-1.265-19.235 7.812-24.526l28.192-16.434c9.076-5.288 20.411-2.91 25.191 5.289z" fill="#ab695d"/></g><g><path d="m190.073 391.201c4.779 8.199 1.263 19.235-7.813 24.526l-28.19 16.432c-9.076 5.292-20.412 2.912-25.191-5.287-4.78-8.199-1.264-19.236 7.812-24.527l28.191-16.431c9.076-5.292 20.411-2.913 25.191 5.287z" fill="#ab695d"/></g><path d="m474.601 333.994c3.103 4.942 1.598 11.527-3.343 14.63l-32.221 20.233c-4.94 3.103-11.525 1.599-14.628-3.343l-64.999-103.508c-3.104-4.943-1.6-11.527 3.343-14.631l32.218-20.231c4.944-3.104 11.526-1.6 14.631 3.343z" fill="#01d0fb"/><circle cx="395.906" cy="264.4" fill="#3a313a" r="13.442"/></g></g><path d="m269.15 1.646 22.277 12.862-4.96-11.554c-5.775-.647-11.563-1.067-17.317-1.308z" fill="#515759"/><path d="m248.905 1.646c-5.758.242-11.544.662-17.312 1.308l-4.96 11.551z" fill="#515759"/><path d="m397.029 422.284c1.909-7.347.477-15.534-3.99-22.205 3.805-9.703 4.075-17.835 3.679-22.799l22.679-14.241 1.625 2.589c3.586 5.714 9.744 9.154 16.507 9.238l7.707 19.296c-10.116 12.373-21.484 23.741-33.854 33.854z" fill="#515759"/><path d="m427.557 230.831v-139.276c0-.286-.019-.568-.045-.849-.009-.12-.021-.248-.035-.35-.062-.474-.172-.974-.334-1.5-.04-.126-.081-.247-.124-.368-.379-1.053-.926-2.001-1.636-2.838-.091-.107-.172-.201-.257-.292-.382-.413-.756-.756-1.154-1.062-.081-.062-.186-.136-.284-.202-.213-.152-.452-.313-.704-.457l-27.534-15.896 17.186-6.864c12.367 10.111 23.735 21.479 33.854 33.854l-17.777 44.509c-1.041 2.606-.813 5.607.611 8.027 9.139 15.527 16.057 32.197 20.563 49.552.705 2.715 2.665 4.997 5.242 6.104l44.012 18.897c.799 7.995 1.204 16.038 1.204 23.948 0 7.891-.405 15.929-1.204 23.934l-37.156 15.953z" fill="#515759"/><path d="m26.088 265.315c-.797-7.965-1.2-16.002-1.2-23.932 0-7.95.403-15.993 1.2-23.948l44.015-18.898c2.578-1.106 4.538-3.388 5.243-6.104 4.501-17.342 11.417-34.015 20.552-49.554 1.443-2.455 1.666-5.38.609-8.024l-17.774-44.509c10.128-12.382 21.498-23.752 33.854-33.855l17.193 6.865-27.534 15.896c-.249.144-.483.3-.711.463-.102.069-.209.146-.294.211-.376.287-.752.631-1.125 1.034-.104.113-.194.216-.283.322-.691.815-1.24 1.764-1.613 2.8-.051.145-.092.264-.13.384-.164.53-.275 1.03-.339 1.532-.014.105-.026.237-.034.358-.027.299-.042.555-.042.813v139.274l-34.427 54.825z" fill="#515759"/><path d="m111.457 429.523c-12.359-10.104-23.727-21.473-33.854-33.857l7.704-19.295c6.768-.079 12.928-3.52 16.518-9.238l1.625-2.588 22.675 14.239c-.402 4.979-.125 12.406 2.983 21.132-5.021 7.229-6.339 16.175-3.622 24.003z" fill="#515759"/><g fill="#0ad5ff"><path d="m218.874 142.084 43.407-25.345 43.407 25.345-43.407 25.063z"/><path d="m263.621 44.115c-8.229-8.684-16.374-16.345-24.318-22.876l24.317-14.038 24.317 14.04c-7.943 6.53-16.087 14.19-24.316 22.874z"/><path d="m365.173 106.311c6.54-3.034 11.886-6.792 15.96-11.23 4.298-4.681 7.012-9.912 8.032-15.4l12.972 7.489-35.069 20.248z"/><path d="m125.104 87.17 12.976-7.491c1.019 5.491 3.731 10.723 8.028 15.403 4.075 4.438 9.419 8.195 15.959 11.229l-1.896 1.107z"/><path d="m254.477 280.599c-13.569-6.756-26.533-10.173-38.637-10.173-1.574 0-3.141.06-4.693.179v-112.64l43.33 25.018z"/><path d="m129.511 212.895c-3.143-1.973-6.766-3.015-10.478-3.015-1.036 0-2.063.08-3.072.235v-107.109l35.093 20.262v103.155z"/><path d="m272.762 182.982 43.33-25.017v112.64c-1.551-.12-3.117-.179-4.691-.179-12.105 0-25.07 3.417-38.639 10.173z"/><path d="m376.185 123.269 35.095-20.263v107.109c-1.009-.156-2.036-.236-3.072-.236-3.711 0-7.334 1.042-10.477 3.015l-21.546 13.529z"/></g><path d="m185.566 55.871 14.01 8.181c3.932.85 8.066 1.631 12.303 2.326-9.407-5.627-18.204-9.143-26.313-10.507z" fill="#ff5ba7"/><path d="m338.21 278.4c-1.104-.641-2.383-1.317-3.832-1.984v-133.094c0-3.238-1.737-6.264-4.534-7.896l-32.439-18.941h17.926c9.176 0 17.794-.649 25.65-1.931l16.918 9.878v118.798c-.488 1.125-.866 2.271-1.128 3.422-.939 4.112-.537 8.414 1.128 12.251v7.133z" fill="#ff5ba7"/><path d="m315.397 66.372c4.222-.693 8.345-1.472 12.265-2.319l13.941-8.141c-8.06 1.386-16.854 4.892-26.206 10.46z" fill="#ff5ba7"/><path d="m169.34 264.842v-7.127c1.667-3.84 2.07-8.142 1.13-12.256-.264-1.154-.643-2.302-1.13-3.426v-118.794l16.918-9.878c7.854 1.282 16.473 1.931 25.651 1.931h17.924l-32.44 18.942c-2.795 1.631-4.532 4.657-4.532 7.895v133.095c-1.449.667-2.726 1.343-3.831 1.983z" fill="#ff5ba7"/><path d="m254.478 83.389c-7.036-6.831-13.961-12.861-20.679-18-20.251-15.516-39.003-23.384-55.733-23.384-5.057 0-9.947.729-14.535 2.17-.052.016-.3.099-.342.113-2.482.795-4.91 1.808-7.218 3.011v-22.255c.479-3.847 3.552-7.513 8.468-10.088 4.093-2.141 8.685-3.228 13.647-3.228 7.154 0 15.279 2.226 24.15 6.614 15.958 7.895 33.527 22.288 52.241 42.792v22.255z" fill="#ff5ba7"/><path d="m210.402 97.006c-35.389 0-48.387-9.995-52.333-14.292-1.833-1.996-3.952-5.142-3.64-8.795.308-3.554 2.828-6.973 6.986-9.55 13.782 10.96 50.851 15.861 61.739 17.09 5.718 4.506 11.605 9.711 17.588 15.548h-30.34z" fill="#ff5ba7"/><path d="m272.763 63.763c18.701-20.49 36.27-34.878 52.241-42.779 8.872-4.388 16.998-6.613 24.151-6.613 4.962 0 9.554 1.086 13.646 3.228 4.916 2.575 7.989 6.24 8.468 10.087v22.254c-2.313-1.206-4.74-2.218-7.222-3.012-.048-.016-.269-.091-.356-.117-4.509-1.415-9.354-2.137-14.375-2.137-16.849 0-35.648 7.858-55.876 23.357-6.722 5.142-13.647 11.171-20.679 17.999v-22.267z" fill="#ff5ba7"/><path d="m284.99 97.006c5.983-5.836 11.87-11.041 17.588-15.548 10.89-1.229 47.958-6.129 61.739-17.09 4.149 2.571 6.67 5.982 6.985 9.532.002.019.01.113.012.133.292 3.554-1.822 6.691-3.649 8.681-3.945 4.297-16.944 14.292-52.333 14.292z" fill="#ff5ba7"/><path d="m300.548 499.749c-2.244 0-4.458-.72-6.405-2.082-.208-.146-.429-.288-.658-.419l-16.159-9.419c1.181-1.935 2.128-3.999 2.808-6.131 1.585-4.98 1.703-10.067.397-14.801l22.646 17.227c.045.034.246.182.296.217 2.318 1.627 3.909 3.919 4.493 6.461.507 2.206.163 4.312-.971 5.93-1.343 1.917-3.693 3.017-6.447 3.017zm30.3-20.971c-2.243 0-4.457-.719-6.403-2.081l-10.343-7.238-38.521-29.306c-1.606-1.222-3.52-1.867-5.534-1.867-2.883 0-5.536 1.315-7.28 3.609-1.581 2.079-2.132 4.626-1.738 7.021-1.859-.383-3.79-.582-5.768-.582-1.294 0-2.58.086-3.854.256-.345-3.581-1.444-7.044-3.257-10.154-4.616-7.92-13.137-12.648-22.794-12.648-.854 0-1.707.038-2.556.113-.283-3.771-1.4-7.426-3.31-10.702-2.884-4.951-7.354-8.692-12.72-10.777 2.178-7.063 1.407-14.326-2.181-20.481-4.616-7.917-13.141-12.645-22.805-12.645-5.183 0-10.332 1.406-14.89 4.063l-22.082 12.871c-1.099-6.342.097-10.294.163-10.505 1.334-3.944-.228-8.332-3.825-10.592l-27.849-17.487 42.298-67.358 27.849 17.487c1.451.911 3.126 1.392 4.845 1.392 2.373 0 4.625-.899 6.342-2.533.254-.235 6.7-6.071 20.201-6.071 9.408 0 19.805 2.856 30.987 8.503l-22.144 15.75c-11.506 8.185-17.448 19.795-16.303 31.855 1.062 11.176 8.055 21.016 18.25 25.678 3.981 1.82 8.211 2.744 12.572 2.744 6.902 0 13.842-2.342 20.068-6.771l28.248-20.091c3.563 3.532 7.727 6.391 12.273 8.419.631.81 1.398 1.51 2.278 2.072l76.236 48.755c.366.264.717.547 1.045.845.023.022.047.044.07.066l-.002-.002c3.496 3.219 4.497 8.222 2.279 11.391-1.343 1.918-3.693 3.019-6.449 3.019-2.243 0-4.458-.72-6.403-2.082-.054-.038-.284-.191-.337-.225l-50.617-32.077c-1.467-.93-3.157-1.42-4.89-1.42-3.151 0-6.039 1.588-7.726 4.248-2.7 4.261-1.43 9.92 2.828 12.619l50.435 31.961 4.469 3.127c4.514 3.159 6.095 8.72 3.523 12.397-1.341 1.916-3.689 3.015-6.444 3.015-2.245 0-4.461-.72-6.409-2.083l-8.416-5.891s-.039-.027-.046-.033l-44.961-31.08c-1.536-1.061-3.332-1.621-5.194-1.621-3.004 0-5.817 1.474-7.524 3.941-2.867 4.149-1.826 9.855 2.321 12.722l44.95 31.073c4.486 3.15 6.059 8.705 3.493 12.373-1.341 1.918-3.692 3.018-6.448 3.018z" fill="#ffded4"/><path d="m332.432 357.106c6.027-1.937 12.194-4.878 18.446-8.804 4.27-2.68 5.563-8.335 2.881-12.604-1.684-2.682-4.58-4.283-7.748-4.283-1.719 0-3.399.485-4.858 1.401-9.299 5.84-17.893 8.801-25.541 8.801-11.634 0-17.722-6.928-20.315-11.058-1.331-2.121-3.504-3.617-5.962-4.105-.585-.116-1.185-.175-1.781-.175-1.911 0-3.743.585-5.299 1.693l-35.239 25.063c-3.126 2.225-6.388 3.4-9.433 3.4-1.723 0-3.406-.37-5.003-1.101-4.209-1.925-7.212-6.155-7.651-10.777-.518-5.46 2.571-10.868 8.698-15.227l35.145-24.998c15.013-9.393 28.798-14.156 40.973-14.156 13.479 0 19.929 5.819 20.197 6.067 1.648 1.618 3.922 2.546 6.331 2.546 1.722 0 3.403-.485 4.862-1.401l27.847-17.487 42.298 67.359-27.849 17.487c-3.578 2.248-5.146 6.617-3.815 10.624.055.179 1.377 4.663-.177 11.797z" fill="#c07c6f"/><path d="m85.57 357.334c-.268 0-.528-.075-.752-.215l-32.221-20.232c-.685-.431-.893-1.34-.462-2.026l48.551-77.314c-1.066 8.452 2.714 17.164 10.391 21.985 3.605 2.263 7.754 3.459 11.999 3.459 4.46 0 8.702-1.284 12.295-3.614l-48.529 77.28c-.271.431-.735.677-1.272.677zm59.918-94.069c1.065-8.451-2.714-17.165-10.391-21.985-3.605-2.264-7.753-3.46-11.998-3.46-4.46 0-8.702 1.285-12.296 3.615l6.33-10.08c.271-.431.734-.679 1.272-.679.268 0 .528.074.753.215l32.219 20.232c.332.208.546.518.638.919.092.403.033.774-.176 1.106z" fill="#9860ff"/><path d="m123.704 262.194c-.802 0-1.589-.228-2.277-.659-2.006-1.26-2.614-3.919-1.353-5.926.792-1.262 2.158-2.015 3.653-2.015.8 0 1.586.228 2.273.66 2.006 1.26 2.615 3.92 1.353 5.928-.791 1.26-2.155 2.012-3.649 2.012z" fill="#4f444f"/><path d="m224.473 499.148c-3.055 0-5.661-1.34-6.968-3.584-.993-1.702-1.162-3.824-.477-5.974.791-2.484 2.565-4.631 4.995-6.047.025-.015 15.689-9.146 15.689-9.146l-.004.003c.023-.014 12.506-7.291 12.506-7.291 1.787-1.042 3.765-1.591 5.72-1.591 3.055 0 5.661 1.34 6.97 3.585.992 1.702 1.162 3.823.477 5.973-.791 2.484-2.565 4.632-4.996 6.05l-28.191 16.432c-1.787 1.04-3.766 1.59-5.721 1.59z" fill="#c07c6f"/><path d="m194.594 476.621c-3.056 0-5.661-1.341-6.97-3.585-.992-1.702-1.162-3.823-.477-5.974.792-2.484 2.566-4.632 4.996-6.049l28.19-16.432c1.786-1.041 3.764-1.592 5.719-1.592 3.055 0 5.66 1.341 6.968 3.585.993 1.703 1.162 3.824.477 5.975-.791 2.484-2.564 4.632-4.995 6.048l-28.19 16.432c-1.785 1.042-3.762 1.592-5.718 1.592z" fill="#c07c6f"/><path d="m165.933 453.383c-3.056 0-5.661-1.34-6.969-3.584-.992-1.702-1.162-3.824-.477-5.974.791-2.484 2.564-4.632 4.995-6.048.304-.177.599-.373.882-.587.587-.293 1.104-.572 1.598-.86l25.712-14.987c1.786-1.04 3.764-1.59 5.719-1.59 3.056 0 5.662 1.34 6.97 3.584.992 1.703 1.162 3.824.477 5.974-.791 2.482-2.564 4.63-4.992 6.047l.009-.005c-.005.003-28.203 16.439-28.203 16.439-1.787 1.041-3.766 1.591-5.721 1.591z" fill="#c07c6f"/><path d="m151.069 421.105c-3.085 0-5.704-1.334-7.006-3.568-2.253-3.864-.226-9.257 4.519-12.023l28.19-16.431c1.767-1.03 3.732-1.575 5.682-1.575 3.085 0 5.705 1.333 7.007 3.567.992 1.703 1.161 3.824.476 5.975-.791 2.484-2.566 4.632-4.995 6.049l-28.19 16.432c-1.769 1.029-3.733 1.574-5.683 1.574z" fill="#c07c6f"/><path d="m439.035 356.205c-.538 0-1-.247-1.27-.676l-48.529-77.281c3.593 2.33 7.835 3.614 12.295 3.614 4.244 0 8.393-1.196 11.998-3.459 7.677-4.822 11.457-13.533 10.391-21.984l48.55 77.313c.431.686.224 1.595-.462 2.025l-32.22 20.232c-.225.141-.485.216-.753.216zm-66.271-104.187c-.208-.332-.267-.703-.175-1.106.092-.401.307-.71.638-.919l32.218-20.231c.225-.142.485-.216.754-.216.538 0 1.001.247 1.271.678l6.33 10.08c-3.593-2.33-7.835-3.615-12.295-3.615-4.245 0-8.393 1.197-11.999 3.461-7.676 4.82-11.456 13.533-10.39 21.984z" fill="#0ad5ff"/><path d="m402.535 263.199c-1.518 0-2.849-.733-3.651-2.013-1.261-2.008-.654-4.667 1.353-5.927.688-.432 1.473-.66 2.273-.66 1.496 0 2.861.753 3.654 2.015 1.26 2.006.653 4.665-1.354 5.926-.687.43-1.475.659-2.275.659z" fill="#4f444f"/></g></svg>