<svg id="Layer_1" enable-background="new 0 0 512 512" viewBox="0 0 512 512" xmlns="http://www.w3.org/2000/svg"><g><path d="m271.3 23.1 23.3 17.6c5.8 4.4 13.1 6 20.2 4.6l28.6-5.7c11.1-2.2 22.3 3.2 27.5 13.2l13.3 25.9c3.3 6.4 9.2 11.1 16.2 12.9l28.2 7.2c11 2.8 18.7 12.5 19 23.9l.8 29.1c.2 7.2 3.5 14 9 18.7l22.3 18.8c8.7 7.3 11.4 19.4 6.8 29.7l-11.9 26.6c-3 6.6-3 14.2 0 20.8l11.9 26.6c4.6 10.3 1.9 22.5-6.8 29.7l-22.3 18.8c-5.5 4.7-8.8 11.5-9 18.7l-.8 29.1c-.3 11.3-8.1 21-19 23.9l-28.2 7.2c-7 1.8-12.9 6.5-16.2 12.9l-13.3 25.9c-5.2 10.1-16.4 15.5-27.5 13.2l-28.6-5.7c-7.1-1.4-14.5.3-20.2 4.6l-23.3 17.6c-9 6.8-21.5 6.8-30.5 0l-23.3-17.6c-5.8-4.4-13.1-6-20.2-4.6l-28.6 5.7c-11.1 2.2-22.3-3.2-27.5-13.2l-13.3-25.9c-3.3-6.4-9.2-11.1-16.2-12.9l-28.2-7.2c-11-2.8-18.7-12.5-19-23.9l-.8-29.1c-.2-7.2-3.5-14-9-18.7l-22.3-18.8c-8.7-7.3-11.4-19.4-6.8-29.7l11.9-26.6c3-6.6 3-14.2 0-20.8l-12-26.6c-4.6-10.3-1.9-22.5 6.8-29.7l22.3-18.8c5.5-4.7 8.8-11.5 9-18.7l.8-29.1c.3-11.3 8.1-21 19-23.9l28.2-7.2c7-1.8 12.9-6.5 16.2-12.9l13.3-25.9c5.2-10.1 16.4-15.5 27.5-13.2l28.6 5.7c7.1 1.4 14.5-.3 20.2-4.6l23.3-17.6c9.1-6.8 21.5-6.8 30.6 0z" fill="#ed237a"/><g><g fill="#fbb03a"><path d="m171.2 181.1v149.7h-34.6v-121.9h-30v-27.8z"/><path d="m261.5 333.4c-12.3 0-23.2-3-32.9-9.1s-17.3-14.9-22.9-26.4-8.3-25.5-8.3-41.9 2.8-30.4 8.3-41.9c5.6-11.6 13.2-20.4 22.9-26.4 9.7-6.1 20.7-9.1 32.9-9.1 12.4 0 23.4 3 33 9.1s17.2 14.9 22.8 26.4 8.3 25.5 8.3 41.9-2.8 30.4-8.3 41.9c-5.6 11.5-13.2 20.4-22.8 26.4s-20.6 9.1-33 9.1zm0-29.3c5.8 0 10.9-1.6 15.3-4.9s7.8-8.5 10.3-15.6 3.7-16.3 3.7-27.6-1.2-20.5-3.7-27.6-5.9-12.3-10.3-15.6-9.4-4.9-15.3-4.9c-5.7 0-10.7 1.6-15.1 4.9s-7.8 8.5-10.3 15.6-3.7 16.3-3.7 27.6 1.2 20.5 3.7 27.6 5.9 12.3 10.3 15.6c4.4 3.2 9.4 4.9 15.1 4.9z"/></g><g fill="#f3f2f3"><path d="m343.1 333c4.9 1.8 10.4-.7 12.1-5.7l49.6-136.2c1.8-4.9-.7-10.4-5.7-12.1-4.9-1.8-10.4.7-12.1 5.7l-49.6 136.2c-1.8 4.9.8 10.3 5.7 12.1z"/><path d="m349.7 209.4c-7.1 0-12.9-5.8-12.9-12.9v-5.3c0-7.1 5.8-12.9 12.9-12.9 7.1 0 12.9 5.8 12.9 12.9v5.3c0 7.2-5.8 12.9-12.9 12.9z"/><path d="m392.5 333.6c-7.1 0-12.9-5.8-12.9-12.9v-5.3c0-7.1 5.8-12.9 12.9-12.9 7.1 0 12.9 5.8 12.9 12.9v5.3c0 7.1-5.8 12.9-12.9 12.9z"/></g></g></g></svg>